STARTFONT 2.1
COMMENT  
COMMENT  (c) Copyright 1994 by Star Division GmbH
COMMENT  
COMMENT  WARNING:  This bdf file was generated from a font server using
COMMENT  fstobdf.  The resulting font is subject to the same copyright,
COMMENT  license, and trademark restrictions as the original font.  The
COMMENT  authors and distributors of fstobdf disclaim all liability for
COMMENT  misuse of the program or its output.
COMMENT  
FONT -Star Division-starmath-medium-r-normal--8-80-75-75-p-0-iso8859-1
SIZE 8 75 75
FONTBOUNDINGBOX 16 11 -2 -4
STARTPROPERTIES 54
FONT "-Star Division-starmath-medium-r-normal--8-80-75-75-p-0-iso8859-1"
FONT_TYPE "TrueType"
TECHNOLOGY "TrueType"
FOUNDRY ""
FAMILY_NAME "starmath"
WEIGHT_NAME "medium"
SLANT "r"
SETWIDTH_NAME "normal"
ADD_STYLE_NAME ""
PIXEL_SIZE 8
POINT_SIZE 80
RESOLUTION_X 75
RESOLUTION_Y 75
SPACING "p"
AVERAGE_WIDTH 40
CHARSET_REGISTRY "iso8859"
CHARSET_ENCODING "1"
AVG_LOWERCASE_WIDTH 4
RAW_AVG_LOWERCASE_WIDTH 500
SUBSCRIPT_X 0
SUBSCRIPT_Y 3
SUBSCRIPT_SIZE 4
RAW_SUBSCRIPT_X 0
RAW_SUBSCRIPT_Y 499
RAW_SUBSCRIPT_SIZE 500
SUPERSCRIPT_X 0
SUPERSCRIPT_Y 2
SUPERSCRIPT_SIZE 4
RAW_SUPERSCRIPT_X 0
RAW_SUPERSCRIPT_Y 250
RAW_SUPERSCRIPT_SIZE 500
STRIKEOUT_ASCENT 2
STRIKEOUT_DESCENT -1
RAW_STRIKEOUT_ASCENT 299
RAW_STRIKEOUT_DESCENT -249
RELATIVE_SETWIDTH 50
RELATIVE_WEIGHT 40
_GALLIUM_PANOSE "5 11 5 0 0 0 0 0 0 0"
UNDERLINE_POSITION 0
UNDERLINE_THICKNESS 0
RAW_UNDERLINE_POSITION 99
RAW_UNDERLINE_THICKNESS 50
ITALIC_ANGLE 0
RAW_PIXEL_SIZE 1000
RAW_POINT_SIZE 9636
FONT_ASCENT 7
FONT_DESCENT 3
RAW_ASCENT 863
RAW_DESCENT 325
RAW_AVERAGE_WIDTH 6260
COPYRIGHT "(c) Copyright 1994 by Star Division GmbH"
FACE_NAME "StarMath"
NOTICE "Created by Type-Designer 2.5"
DEFAULT_CHAR 0
ENDPROPERTIES
CHARS 223
STARTCHAR exclam
ENCODING 33
SWIDTH 240 0
DWIDTH 2 0
BBX 1 6 1 0
ATTRIBUTES 0115
BITMAP
80
80
80
80
80
80
ENDCHAR
STARTCHAR quotedbl
ENCODING 34
SWIDTH 360 0
DWIDTH 3 0
BBX 3 2 0 4
ATTRIBUTES 0162
BITMAP
a0
a0
ENDCHAR
STARTCHAR numbersign
ENCODING 35
SWIDTH 600 0
DWIDTH 5 0
BBX 4 6 0 0
ATTRIBUTES 022b
BITMAP
50
50
f0
50
f0
a0
ENDCHAR
STARTCHAR dollar
ENCODING 36
SWIDTH 960 0
DWIDTH 8 0
BBX 8 6 0 0
ATTRIBUTES 03c0
BITMAP
10
d0
d0
2a
3d
5f
ENDCHAR
STARTCHAR percent
ENCODING 37
SWIDTH 840 0
DWIDTH 7 0
BBX 6 5 0 0
ATTRIBUTES 0340
BITMAP
c8
d0
24
2c
4c
ENDCHAR
STARTCHAR ampersand
ENCODING 38
SWIDTH 720 0
DWIDTH 6 0
BBX 6 6 0 0
ATTRIBUTES 0309
BITMAP
30
50
6c
68
90
e8
ENDCHAR
STARTCHAR apostrophe
ENCODING 39
SWIDTH 720 0
DWIDTH 6 0
BBX 6 4 0 0
ATTRIBUTES 02c8
BITMAP
58
bc
a4
58
ENDCHAR
STARTCHAR parenleft
ENCODING 40
SWIDTH 360 0
DWIDTH 3 0
BBX 2 9 0 -2
ATTRIBUTES 0153
BITMAP
40
40
80
80
80
80
40
40
40
ENDCHAR
STARTCHAR parenright
ENCODING 41
SWIDTH 360 0
DWIDTH 3 0
BBX 2 9 0 -2
ATTRIBUTES 0153
BITMAP
80
80
40
40
40
40
40
80
80
ENDCHAR
STARTCHAR asterisk
ENCODING 42
SWIDTH 360 0
DWIDTH 3 0
BBX 3 3 0 3
ATTRIBUTES 0185
BITMAP
40
40
60
ENDCHAR
STARTCHAR plus
ENCODING 43
SWIDTH 600 0
DWIDTH 5 0
BBX 5 5 0 0
ATTRIBUTES 0247
BITMAP
20
20
f8
20
20
ENDCHAR
STARTCHAR comma
ENCODING 44
SWIDTH 240 0
DWIDTH 2 0
BBX 1 2 1 -1
ATTRIBUTES 0115
BITMAP
80
80
ENDCHAR
STARTCHAR minus
ENCODING 45
SWIDTH 360 0
DWIDTH 3 0
BBX 2 1 0 2
ATTRIBUTES 014c
BITMAP
c0
ENDCHAR
STARTCHAR period
ENCODING 46
SWIDTH 240 0
DWIDTH 2 0
BBX 1 1 1 0
ATTRIBUTES 0115
BITMAP
80
ENDCHAR
STARTCHAR slash
ENCODING 47
SWIDTH 240 0
DWIDTH 2 0
BBX 2 6 0 0
ATTRIBUTES 0115
BITMAP
40
40
40
80
80
80
ENDCHAR
STARTCHAR 0
ENCODING 48
SWIDTH 600 0
DWIDTH 5 0
BBX 4 6 0 0
ATTRIBUTES 022b
BITMAP
60
90
90
90
90
60
ENDCHAR
STARTCHAR 1
ENCODING 49
SWIDTH 600 0
DWIDTH 5 0
BBX 2 6 1 0
ATTRIBUTES 022b
BITMAP
40
c0
40
40
40
40
ENDCHAR
STARTCHAR 2
ENCODING 50
SWIDTH 600 0
DWIDTH 5 0
BBX 4 6 0 0
ATTRIBUTES 022b
BITMAP
70
90
30
40
40
f0
ENDCHAR
STARTCHAR 3
ENCODING 51
SWIDTH 600 0
DWIDTH 5 0
BBX 4 6 0 0
ATTRIBUTES 022b
BITMAP
60
90
20
10
90
60
ENDCHAR
STARTCHAR 4
ENCODING 52
SWIDTH 600 0
DWIDTH 5 0
BBX 4 6 0 0
ATTRIBUTES 022b
BITMAP
20
60
60
a0
f0
20
ENDCHAR
STARTCHAR 5
ENCODING 53
SWIDTH 600 0
DWIDTH 5 0
BBX 4 6 0 0
ATTRIBUTES 022b
BITMAP
70
40
60
10
90
60
ENDCHAR
STARTCHAR 6
ENCODING 54
SWIDTH 600 0
DWIDTH 5 0
BBX 4 6 0 0
ATTRIBUTES 022b
BITMAP
60
90
e0
90
90
60
ENDCHAR
STARTCHAR 7
ENCODING 55
SWIDTH 600 0
DWIDTH 5 0
BBX 4 6 0 0
ATTRIBUTES 022b
BITMAP
f0
20
20
20
40
40
ENDCHAR
STARTCHAR 8
ENCODING 56
SWIDTH 600 0
DWIDTH 5 0
BBX 4 6 0 0
ATTRIBUTES 022b
BITMAP
60
90
60
90
90
60
ENDCHAR
STARTCHAR 9
ENCODING 57
SWIDTH 600 0
DWIDTH 5 0
BBX 4 6 0 0
ATTRIBUTES 022b
BITMAP
60
90
90
70
50
60
ENDCHAR
STARTCHAR colon
ENCODING 58
SWIDTH 240 0
DWIDTH 2 0
BBX 1 4 1 0
ATTRIBUTES 0115
BITMAP
80
00
00
80
ENDCHAR
STARTCHAR semicolon
ENCODING 59
SWIDTH 240 0
DWIDTH 2 0
BBX 1 5 1 -1
ATTRIBUTES 0115
BITMAP
80
00
00
80
80
ENDCHAR
STARTCHAR less
ENCODING 60
SWIDTH 600 0
DWIDTH 5 0
BBX 4 4 0 1
ATTRIBUTES 0247
BITMAP
10
60
c0
30
ENDCHAR
STARTCHAR equal
ENCODING 61
SWIDTH 840 0
DWIDTH 7 0
BBX 5 3 1 1
ATTRIBUTES 031a
BITMAP
f8
00
f8
ENDCHAR
STARTCHAR greater
ENCODING 62
SWIDTH 600 0
DWIDTH 5 0
BBX 4 4 0 1
ATTRIBUTES 0247
BITMAP
80
60
30
c0
ENDCHAR
STARTCHAR question
ENCODING 63
SWIDTH 600 0
DWIDTH 5 0
BBX 4 6 0 0
ATTRIBUTES 022b
BITMAP
20
00
60
40
90
60
ENDCHAR
STARTCHAR at
ENCODING 64
SWIDTH 840 0
DWIDTH 7 0
BBX 5 5 1 0
ATTRIBUTES 031a
BITMAP
10
f8
20
f8
40
ENDCHAR
STARTCHAR A
ENCODING 65
SWIDTH 840 0
DWIDTH 7 0
BBX 5 5 1 0
ATTRIBUTES 031a
BITMAP
20
20
f8
20
20
ENDCHAR
STARTCHAR B
ENCODING 66
SWIDTH 840 0
DWIDTH 7 0
BBX 5 1 1 2
ATTRIBUTES 031a
BITMAP
f8
ENDCHAR
STARTCHAR C
ENCODING 67
SWIDTH 720 0
DWIDTH 6 0
BBX 3 3 1 1
ATTRIBUTES 02d3
BITMAP
40
40
e0
ENDCHAR
STARTCHAR D
ENCODING 68
SWIDTH 840 0
DWIDTH 7 0
BBX 5 5 1 0
ATTRIBUTES 031a
BITMAP
88
d0
20
50
88
ENDCHAR
STARTCHAR E
ENCODING 69
SWIDTH 600 0
DWIDTH 5 0
BBX 1 1 2 2
ATTRIBUTES 0242
BITMAP
80
ENDCHAR
STARTCHAR F
ENCODING 70
SWIDTH 840 0
DWIDTH 7 0
BBX 5 4 1 0
ATTRIBUTES 031a
BITMAP
20
f8
00
20
ENDCHAR
STARTCHAR G
ENCODING 71
SWIDTH 840 0
DWIDTH 7 0
BBX 5 5 1 0
ATTRIBUTES 031a
BITMAP
20
20
f8
20
f8
ENDCHAR
STARTCHAR H
ENCODING 72
SWIDTH 840 0
DWIDTH 7 0
BBX 5 5 1 0
ATTRIBUTES 031a
BITMAP
f8
20
20
f8
20
ENDCHAR
STARTCHAR I
ENCODING 73
SWIDTH 840 0
DWIDTH 7 0
BBX 5 5 1 0
ATTRIBUTES 031a
BITMAP
30
f0
f0
b0
f0
ENDCHAR
STARTCHAR J
ENCODING 74
SWIDTH 840 0
DWIDTH 7 0
BBX 5 5 1 0
ATTRIBUTES 031a
BITMAP
70
88
f8
88
70
ENDCHAR
STARTCHAR K
ENCODING 75
SWIDTH 840 0
DWIDTH 7 0
BBX 5 5 1 0
ATTRIBUTES 031a
BITMAP
70
d8
e8
e8
70
ENDCHAR
STARTCHAR L
ENCODING 76
SWIDTH 840 0
DWIDTH 7 0
BBX 5 5 1 0
ATTRIBUTES 031a
BITMAP
70
d8
a8
d8
70
ENDCHAR
STARTCHAR M
ENCODING 77
SWIDTH 840 0
DWIDTH 7 0
BBX 5 5 1 0
ATTRIBUTES 031a
BITMAP
70
88
a8
88
70
ENDCHAR
STARTCHAR N
ENCODING 78
SWIDTH 840 0
DWIDTH 7 0
BBX 5 5 1 0
ATTRIBUTES 031a
BITMAP
88
88
88
50
70
ENDCHAR
STARTCHAR O
ENCODING 79
SWIDTH 840 0
DWIDTH 7 0
BBX 5 5 1 0
ATTRIBUTES 031a
BITMAP
70
c8
88
88
88
ENDCHAR
STARTCHAR P
ENCODING 80
SWIDTH 840 0
DWIDTH 7 0
BBX 5 4 1 1
ATTRIBUTES 031a
BITMAP
08
30
40
38
ENDCHAR
STARTCHAR Q
ENCODING 81
SWIDTH 840 0
DWIDTH 7 0
BBX 5 4 1 1
ATTRIBUTES 031a
BITMAP
80
60
30
c0
ENDCHAR
STARTCHAR R
ENCODING 82
SWIDTH 840 0
DWIDTH 7 0
BBX 5 5 1 0
ATTRIBUTES 031a
BITMAP
08
30
40
38
f8
ENDCHAR
STARTCHAR S
ENCODING 83
SWIDTH 840 0
DWIDTH 7 0
BBX 5 5 1 0
ATTRIBUTES 031a
BITMAP
80
60
30
c0
f8
ENDCHAR
STARTCHAR T
ENCODING 84
SWIDTH 840 0
DWIDTH 7 0
BBX 5 5 1 0
ATTRIBUTES 031a
BITMAP
18
60
20
78
18
ENDCHAR
STARTCHAR U
ENCODING 85
SWIDTH 840 0
DWIDTH 7 0
BBX 5 5 1 0
ATTRIBUTES 031a
BITMAP
c0
30
60
b0
c0
ENDCHAR
STARTCHAR V
ENCODING 86
SWIDTH 1080 0
DWIDTH 9 0
BBX 7 5 1 0
ATTRIBUTES 045d
BITMAP
1a
6c
90
68
16
ENDCHAR
STARTCHAR W
ENCODING 87
SWIDTH 1080 0
DWIDTH 9 0
BBX 7 5 1 0
ATTRIBUTES 045d
BITMAP
a0
d8
36
68
90
ENDCHAR
STARTCHAR X
ENCODING 88
SWIDTH 840 0
DWIDTH 7 0
BBX 5 2 1 2
ATTRIBUTES 031a
BITMAP
98
e8
ENDCHAR
STARTCHAR Y
ENCODING 89
SWIDTH 840 0
DWIDTH 7 0
BBX 5 3 1 1
ATTRIBUTES 031a
BITMAP
98
e8
f8
ENDCHAR
STARTCHAR Z
ENCODING 90
SWIDTH 840 0
DWIDTH 7 0
BBX 5 3 1 1
ATTRIBUTES 031a
BITMAP
18
88
f8
ENDCHAR
STARTCHAR bracketleft
ENCODING 91
SWIDTH 840 0
DWIDTH 7 0
BBX 5 6 1 0
ATTRIBUTES 031a
BITMAP
40
f0
f0
c0
f8
f8
ENDCHAR
STARTCHAR backslash
ENCODING 92
SWIDTH 840 0
DWIDTH 7 0
BBX 5 4 1 0
ATTRIBUTES 031a
BITMAP
f8
f8
00
f8
ENDCHAR
STARTCHAR bracketright
ENCODING 93
SWIDTH 720 0
DWIDTH 6 0
BBX 5 4 0 0
ATTRIBUTES 02c8
BITMAP
d0
e0
a0
78
ENDCHAR
STARTCHAR asciicircum
ENCODING 94
SWIDTH 480 0
DWIDTH 4 0
BBX 4 7 0 -1
ATTRIBUTES 01ee
BITMAP
60
10
70
50
90
90
e0
ENDCHAR
STARTCHAR underscore
ENCODING 95
SWIDTH 840 0
DWIDTH 7 0
BBX 5 5 1 0
ATTRIBUTES 031a
BITMAP
38
c0
80
c0
38
ENDCHAR
STARTCHAR grave
ENCODING 96
SWIDTH 840 0
DWIDTH 7 0
BBX 5 5 1 0
ATTRIBUTES 031a
BITMAP
e0
18
08
18
e0
ENDCHAR
STARTCHAR a
ENCODING 97
SWIDTH 840 0
DWIDTH 7 0
BBX 5 5 1 0
ATTRIBUTES 031a
BITMAP
78
80
80
78
f8
ENDCHAR
STARTCHAR b
ENCODING 98
SWIDTH 840 0
DWIDTH 7 0
BBX 5 5 1 0
ATTRIBUTES 031a
BITMAP
f0
08
08
f0
f8
ENDCHAR
STARTCHAR c
ENCODING 99
SWIDTH 840 0
DWIDTH 7 0
BBX 5 6 1 0
ATTRIBUTES 031a
BITMAP
08
78
d0
a0
a0
78
ENDCHAR
STARTCHAR d
ENCODING 100
SWIDTH 840 0
DWIDTH 7 0
BBX 5 5 1 0
ATTRIBUTES 031a
BITMAP
f0
28
48
58
f0
ENDCHAR
STARTCHAR e
ENCODING 101
SWIDTH 840 0
DWIDTH 7 0
BBX 5 5 1 0
ATTRIBUTES 031a
BITMAP
78
90
90
78
f8
ENDCHAR
STARTCHAR f
ENCODING 102
SWIDTH 840 0
DWIDTH 7 0
BBX 5 5 1 0
ATTRIBUTES 031a
BITMAP
f0
28
28
f0
f8
ENDCHAR
STARTCHAR g
ENCODING 103
SWIDTH 720 0
DWIDTH 6 0
BBX 4 5 0 0
ATTRIBUTES 02c8
BITMAP
f0
80
f0
80
70
ENDCHAR
STARTCHAR h
ENCODING 104
SWIDTH 720 0
DWIDTH 6 0
BBX 4 7 0 -1
ATTRIBUTES 02c8
BITMAP
10
70
a0
f0
a0
70
80
ENDCHAR
STARTCHAR i
ENCODING 105
SWIDTH 720 0
DWIDTH 6 0
BBX 4 5 0 0
ATTRIBUTES 02c8
BITMAP
f0
80
f0
80
70
ENDCHAR
STARTCHAR j
ENCODING 106
SWIDTH 600 0
DWIDTH 5 0
BBX 4 6 0 0
ATTRIBUTES 0224
BITMAP
f0
10
10
f0
10
f0
ENDCHAR
STARTCHAR k
ENCODING 107
SWIDTH 480 0
DWIDTH 4 0
BBX 3 4 0 0
ATTRIBUTES 01b6
BITMAP
c0
20
e0
c0
ENDCHAR
STARTCHAR l
ENCODING 108
SWIDTH 840 0
DWIDTH 7 0
BBX 5 5 0 0
ATTRIBUTES 0336
BITMAP
88
58
a0
90
48
ENDCHAR
STARTCHAR m
ENCODING 109
SWIDTH 720 0
DWIDTH 6 0
BBX 5 6 0 -1
ATTRIBUTES 02ae
BITMAP
f0
50
10
08
48
70
ENDCHAR
STARTCHAR n
ENCODING 110
SWIDTH 840 0
DWIDTH 7 0
BBX 6 6 0 0
ATTRIBUTES 031a
BITMAP
40
b8
b8
a8
28
ec
ENDCHAR
STARTCHAR o
ENCODING 111
SWIDTH 960 0
DWIDTH 8 0
BBX 5 6 0 -2
ATTRIBUTES 03da
BITMAP
48
f8
c8
f0
c0
c0
ENDCHAR
STARTCHAR p
ENCODING 112
SWIDTH 480 0
DWIDTH 4 0
BBX 4 8 0 -2
ATTRIBUTES 01f4
BITMAP
10
20
60
20
20
40
40
80
ENDCHAR
STARTCHAR q
ENCODING 113
SWIDTH 840 0
DWIDTH 7 0
BBX 5 6 1 -1
ATTRIBUTES 031a
BITMAP
08
10
70
60
78
10
ENDCHAR
STARTCHAR r
ENCODING 114
SWIDTH 840 0
DWIDTH 7 0
BBX 5 5 1 0
ATTRIBUTES 031a
BITMAP
20
10
f0
20
30
ENDCHAR
STARTCHAR s
ENCODING 115
SWIDTH 360 0
DWIDTH 3 0
BBX 1 7 1 -1
ATTRIBUTES 018d
BITMAP
80
80
80
80
80
80
80
ENDCHAR
STARTCHAR t
ENCODING 116
SWIDTH 600 0
DWIDTH 5 0
BBX 3 7 1 -1
ATTRIBUTES 0242
BITMAP
a0
a0
a0
a0
a0
a0
a0
ENDCHAR
STARTCHAR u
ENCODING 117
SWIDTH 600 0
DWIDTH 5 0
BBX 5 6 0 0
ATTRIBUTES 0292
BITMAP
20
20
20
20
20
f8
ENDCHAR
STARTCHAR v
ENCODING 118
SWIDTH 960 0
DWIDTH 8 0
BBX 6 1 0 0
ATTRIBUTES 03e8
BITMAP
94
ENDCHAR
STARTCHAR w
ENCODING 119
SWIDTH 960 0
DWIDTH 8 0
BBX 6 1 0 2
ATTRIBUTES 03e8
BITMAP
94
ENDCHAR
STARTCHAR x
ENCODING 120
SWIDTH 960 0
DWIDTH 8 0
BBX 1 7 3 -1
ATTRIBUTES 03e8
BITMAP
80
00
00
80
00
00
80
ENDCHAR
STARTCHAR y
ENCODING 121
SWIDTH 960 0
DWIDTH 8 0
BBX 5 5 1 0
ATTRIBUTES 03e8
BITMAP
08
00
20
00
80
ENDCHAR
STARTCHAR z
ENCODING 122
SWIDTH 960 0
DWIDTH 8 0
BBX 5 5 1 0
ATTRIBUTES 03e8
BITMAP
80
00
20
00
08
ENDCHAR
STARTCHAR braceleft
ENCODING 123
SWIDTH 960 0
DWIDTH 8 0
BBX 6 3 1 1
ATTRIBUTES 0388
BITMAP
c4
fc
cc
ENDCHAR
STARTCHAR bar
ENCODING 124
SWIDTH 960 0
DWIDTH 8 0
BBX 6 3 1 1
ATTRIBUTES 0388
BITMAP
8c
f4
cc
ENDCHAR
STARTCHAR braceright
ENCODING 125
SWIDTH 720 0
DWIDTH 6 0
BBX 6 3 0 1
ATTRIBUTES 02bb
BITMAP
04
fc
04
ENDCHAR
STARTCHAR asciitilde
ENCODING 126
SWIDTH 480 0
DWIDTH 4 0
BBX 4 4 0 0
ATTRIBUTES 01f5
BITMAP
f0
90
90
f0
ENDCHAR
STARTCHAR C000177
ENCODING 127
SWIDTH 480 0
DWIDTH 4 0
BBX 4 4 0 0
ATTRIBUTES 01f5
BITMAP
f0
90
90
f0
ENDCHAR
STARTCHAR C000200
ENCODING 128
SWIDTH 600 0
DWIDTH 5 0
BBX 3 9 1 -2
ATTRIBUTES 0242
BITMAP
20
60
40
40
40
40
40
40
80
ENDCHAR
STARTCHAR C000201
ENCODING 129
SWIDTH 840 0
DWIDTH 7 0
BBX 5 9 1 -2
ATTRIBUTES 0356
BITMAP
28
70
50
50
50
50
50
50
a0
ENDCHAR
STARTCHAR C000202
ENCODING 130
SWIDTH 1080 0
DWIDTH 9 0
BBX 7 9 1 -2
ATTRIBUTES 046c
BITMAP
2a
76
54
54
54
54
54
54
a8
ENDCHAR
STARTCHAR C000203
ENCODING 131
SWIDTH 600 0
DWIDTH 5 0
BBX 3 9 1 -2
ATTRIBUTES 0265
BITMAP
40
60
40
e0
e0
40
40
40
40
ENDCHAR
STARTCHAR C000204
ENCODING 132
SWIDTH 840 0
DWIDTH 7 0
BBX 6 9 1 -2
ATTRIBUTES 037b
BITMAP
28
74
70
d8
d8
70
50
50
60
ENDCHAR
STARTCHAR C000205
ENCODING 133
SWIDTH 1200 0
DWIDTH 10 0
BBX 8 9 1 -2
ATTRIBUTES 048f
BITMAP
2a
7d
7e
d7
d7
7e
54
54
68
ENDCHAR
STARTCHAR C000206
ENCODING 134
SWIDTH 480 0
DWIDTH 4 0
BBX 4 7 0 0
ATTRIBUTES 0215
BITMAP
10
10
10
10
a0
60
20
ENDCHAR
STARTCHAR C000207
ENCODING 135
SWIDTH 480 0
DWIDTH 4 0
BBX 4 7 0 0
ATTRIBUTES 0215
BITMAP
10
10
10
10
90
60
20
ENDCHAR
STARTCHAR C000210
ENCODING 136
SWIDTH 480 0
DWIDTH 4 0
BBX 4 6 0 0
ATTRIBUTES 0202
BITMAP
10
10
60
60
60
20
ENDCHAR
STARTCHAR C000211
ENCODING 137
SWIDTH 360 0
DWIDTH 3 0
BBX 3 7 0 0
ATTRIBUTES 0196
BITMAP
20
20
20
20
a0
60
20
ENDCHAR
STARTCHAR C000212
ENCODING 138
SWIDTH 840 0
DWIDTH 7 0
BBX 7 7 0 -1
ATTRIBUTES 0336
BITMAP
ee
44
44
44
44
44
7c
ENDCHAR
STARTCHAR C000213
ENCODING 139
SWIDTH 840 0
DWIDTH 7 0
BBX 7 7 0 -1
ATTRIBUTES 0336
BITMAP
7c
44
44
44
44
44
ee
ENDCHAR
STARTCHAR C000214
ENCODING 140
SWIDTH 720 0
DWIDTH 6 0
BBX 5 7 0 -1
ATTRIBUTES 02c8
BITMAP
f8
48
40
20
40
48
f8
ENDCHAR
STARTCHAR C000215
ENCODING 141
SWIDTH 840 0
DWIDTH 7 0
BBX 7 7 0 0
ATTRIBUTES 0334
BITMAP
fe
44
44
24
28
28
10
ENDCHAR
STARTCHAR C000216
ENCODING 142
SWIDTH 840 0
DWIDTH 7 0
BBX 7 7 0 0
ATTRIBUTES 0340
BITMAP
82
82
7c
44
28
28
30
ENDCHAR
STARTCHAR C000217
ENCODING 143
SWIDTH 1680 0
DWIDTH 14 0
BBX 14 7 0 0
ATTRIBUTES 06a3
BITMAP
4800
4000
4bf8
4948
4948
4948
4948
ENDCHAR
STARTCHAR C000220
ENCODING 144
SWIDTH 360 0
DWIDTH 3 0
BBX 2 1 0 5
ATTRIBUTES 014c
BITMAP
40
ENDCHAR
STARTCHAR C000221
ENCODING 145
SWIDTH 360 0
DWIDTH 3 0
BBX 2 1 0 5
ATTRIBUTES 014c
BITMAP
00
ENDCHAR
STARTCHAR C000222
ENCODING 146
SWIDTH 360 0
DWIDTH 3 0
BBX 2 1 0 5
ATTRIBUTES 014c
BITMAP
c0
ENDCHAR
STARTCHAR C000223
ENCODING 147
SWIDTH 360 0
DWIDTH 3 0
BBX 1 2 1 4
ATTRIBUTES 014c
BITMAP
80
80
ENDCHAR
STARTCHAR C000224
ENCODING 148
SWIDTH 360 0
DWIDTH 3 0
BBX 1 2 1 4
ATTRIBUTES 014c
BITMAP
80
80
ENDCHAR
STARTCHAR C000225
ENCODING 149
SWIDTH 360 0
DWIDTH 3 0
BBX 3 1 0 5
ATTRIBUTES 014c
BITMAP
80
ENDCHAR
STARTCHAR C000226
ENCODING 150
SWIDTH 480 0
DWIDTH 4 0
BBX 4 1 0 5
ATTRIBUTES 01f4
BITMAP
e0
ENDCHAR
STARTCHAR C000227
ENCODING 151
SWIDTH 480 0
DWIDTH 4 0
BBX 4 2 0 4
ATTRIBUTES 01f4
BITMAP
f0
f0
ENDCHAR
STARTCHAR C000230
ENCODING 152
SWIDTH 240 0
DWIDTH 2 0
BBX 1 1 1 5
ATTRIBUTES 0108
BITMAP
00
ENDCHAR
STARTCHAR C000231
ENCODING 153
SWIDTH 240 0
DWIDTH 2 0
BBX 2 1 0 5
ATTRIBUTES 0108
BITMAP
80
ENDCHAR
STARTCHAR C000232
ENCODING 154
SWIDTH 360 0
DWIDTH 3 0
BBX 3 1 0 5
ATTRIBUTES 01a3
BITMAP
c0
ENDCHAR
STARTCHAR C000233
ENCODING 155
SWIDTH 240 0
DWIDTH 2 0
BBX 2 2 0 4
ATTRIBUTES 0103
BITMAP
c0
c0
ENDCHAR
STARTCHAR C000234
ENCODING 156
SWIDTH 840 0
DWIDTH 7 0
BBX 4 5 1 0
ATTRIBUTES 031a
BITMAP
c0
20
20
50
50
ENDCHAR
STARTCHAR C000235
ENCODING 157
SWIDTH 840 0
DWIDTH 7 0
BBX 4 5 1 0
ATTRIBUTES 031a
BITMAP
90
90
90
50
60
ENDCHAR
STARTCHAR C000236
ENCODING 158
SWIDTH 480 0
DWIDTH 4 0
BBX 4 4 0 0
ATTRIBUTES 01f5
BITMAP
20
f0
90
90
ENDCHAR
STARTCHAR C000237
ENCODING 159
SWIDTH 480 0
DWIDTH 4 0
BBX 4 4 0 0
ATTRIBUTES 01f5
BITMAP
f0
f0
90
90
ENDCHAR
STARTCHAR nobreakspace
ENCODING 160
SWIDTH 360 0
DWIDTH 3 0
BBX 2 9 1 -2
ATTRIBUTES 017e
BITMAP
c0
40
80
80
c0
80
c0
80
80
ENDCHAR
STARTCHAR exclamdown
ENCODING 161
SWIDTH 360 0
DWIDTH 3 0
BBX 2 9 0 -2
ATTRIBUTES 017e
BITMAP
40
80
40
40
80
40
80
40
40
ENDCHAR
STARTCHAR cent
ENCODING 162
SWIDTH 360 0
DWIDTH 3 0
BBX 2 8 0 -1
ATTRIBUTES 0137
BITMAP
80
40
40
80
80
80
80
40
ENDCHAR
STARTCHAR sterling
ENCODING 163
SWIDTH 360 0
DWIDTH 3 0
BBX 2 8 0 -1
ATTRIBUTES 0137
BITMAP
40
80
80
40
40
40
40
40
ENDCHAR
STARTCHAR currency
ENCODING 164
SWIDTH 360 0
DWIDTH 3 0
BBX 2 8 0 -1
ATTRIBUTES 014f
BITMAP
40
40
40
80
80
80
80
40
ENDCHAR
STARTCHAR yen
ENCODING 165
SWIDTH 360 0
DWIDTH 3 0
BBX 2 8 0 -1
ATTRIBUTES 014f
BITMAP
40
80
80
40
40
40
40
80
ENDCHAR
STARTCHAR brokenbar
ENCODING 166
SWIDTH 240 0
DWIDTH 2 0
BBX 2 9 0 -2
ATTRIBUTES 0119
BITMAP
80
c0
80
80
80
80
80
80
80
ENDCHAR
STARTCHAR section
ENCODING 167
SWIDTH 240 0
DWIDTH 2 0
BBX 2 9 0 -2
ATTRIBUTES 0119
BITMAP
c0
c0
40
40
40
40
40
40
40
ENDCHAR
STARTCHAR diaeresis
ENCODING 168
SWIDTH 360 0
DWIDTH 3 0
BBX 2 4 1 0
ATTRIBUTES 0157
BITMAP
c0
c0
80
80
ENDCHAR
STARTCHAR copyright
ENCODING 169
SWIDTH 360 0
DWIDTH 3 0
BBX 2 7 0 0
ATTRIBUTES 0157
BITMAP
80
40
40
40
80
40
40
ENDCHAR
STARTCHAR ordfeminine
ENCODING 170
SWIDTH 360 0
DWIDTH 3 0
BBX 2 4 1 0
ATTRIBUTES 0157
BITMAP
40
80
80
80
ENDCHAR
STARTCHAR guillemotleft
ENCODING 171
SWIDTH 360 0
DWIDTH 3 0
BBX 2 4 0 0
ATTRIBUTES 0157
BITMAP
40
c0
40
40
ENDCHAR
STARTCHAR notsign
ENCODING 172
SWIDTH 360 0
DWIDTH 3 0
BBX 1 7 1 0
ATTRIBUTES 0157
BITMAP
00
80
80
80
80
80
80
ENDCHAR
STARTCHAR hyphen
ENCODING 173
SWIDTH 360 0
DWIDTH 3 0
BBX 2 4 0 0
ATTRIBUTES 0157
BITMAP
80
40
40
40
ENDCHAR
STARTCHAR registered
ENCODING 174
SWIDTH 360 0
DWIDTH 3 0
BBX 1 3 1 0
ATTRIBUTES 0157
BITMAP
80
80
80
ENDCHAR
STARTCHAR macron
ENCODING 175
SWIDTH 360 0
DWIDTH 3 0
BBX 2 7 1 0
ATTRIBUTES 018d
BITMAP
80
40
40
40
80
80
80
ENDCHAR
STARTCHAR degree
ENCODING 176
SWIDTH 360 0
DWIDTH 3 0
BBX 1 3 1 0
ATTRIBUTES 018d
BITMAP
80
80
80
ENDCHAR
STARTCHAR plusminus
ENCODING 177
SWIDTH 360 0
DWIDTH 3 0
BBX 2 7 1 0
ATTRIBUTES 018d
BITMAP
80
80
80
80
80
80
40
ENDCHAR
STARTCHAR twosuperior
ENCODING 178
SWIDTH 360 0
DWIDTH 3 0
BBX 2 7 0 0
ATTRIBUTES 018d
BITMAP
40
80
80
80
40
40
40
ENDCHAR
STARTCHAR threesuperior
ENCODING 179
SWIDTH 360 0
DWIDTH 3 0
BBX 1 3 1 0
ATTRIBUTES 018d
BITMAP
00
80
80
ENDCHAR
STARTCHAR acute
ENCODING 180
SWIDTH 360 0
DWIDTH 3 0
BBX 2 7 0 0
ATTRIBUTES 018d
BITMAP
80
40
40
40
40
40
80
ENDCHAR
STARTCHAR mu
ENCODING 181
SWIDTH 360 0
DWIDTH 3 0
BBX 2 7 1 0
ATTRIBUTES 0169
BITMAP
80
c0
80
80
80
80
80
ENDCHAR
STARTCHAR paragraph
ENCODING 182
SWIDTH 360 0
DWIDTH 3 0
BBX 1 3 1 0
ATTRIBUTES 0169
BITMAP
80
80
80
ENDCHAR
STARTCHAR periodcentered
ENCODING 183
SWIDTH 360 0
DWIDTH 3 0
BBX 2 7 1 0
ATTRIBUTES 0169
BITMAP
80
80
80
80
80
80
80
ENDCHAR
STARTCHAR cedilla
ENCODING 184
SWIDTH 360 0
DWIDTH 3 0
BBX 2 7 0 0
ATTRIBUTES 0169
BITMAP
c0
c0
40
40
40
40
40
ENDCHAR
STARTCHAR onesuperior
ENCODING 185
SWIDTH 360 0
DWIDTH 3 0
BBX 1 3 1 0
ATTRIBUTES 0169
BITMAP
00
80
80
ENDCHAR
STARTCHAR masculine
ENCODING 186
SWIDTH 360 0
DWIDTH 3 0
BBX 2 7 0 0
ATTRIBUTES 0169
BITMAP
80
40
40
40
40
40
40
ENDCHAR
STARTCHAR guillemotright
ENCODING 187
SWIDTH 480 0
DWIDTH 4 0
BBX 4 4 0 0
ATTRIBUTES 01f5
BITMAP
c0
f0
90
90
ENDCHAR
STARTCHAR onequarter
ENCODING 188
SWIDTH 360 0
DWIDTH 3 0
BBX 1 3 1 0
ATTRIBUTES 0169
BITMAP
80
80
80
ENDCHAR
STARTCHAR onehalf
ENCODING 189
SWIDTH 480 0
DWIDTH 4 0
BBX 3 8 0 -2
ATTRIBUTES 01b2
BITMAP
80
20
20
20
40
40
40
80
ENDCHAR
STARTCHAR threequarters
ENCODING 190
SWIDTH 480 0
DWIDTH 4 0
BBX 3 8 0 -2
ATTRIBUTES 01b2
BITMAP
80
80
80
80
40
40
40
20
ENDCHAR
STARTCHAR questiondown
ENCODING 191
SWIDTH 840 0
DWIDTH 7 0
BBX 6 6 0 0
ATTRIBUTES 037b
BITMAP
20
fc
84
84
84
84
ENDCHAR
STARTCHAR Agrave
ENCODING 192
SWIDTH 240 0
DWIDTH 2 0
BBX 2 9 0 -2
ATTRIBUTES 0119
BITMAP
c0
c0
80
80
80
80
80
80
80
ENDCHAR
STARTCHAR Aacute
ENCODING 193
SWIDTH 240 0
DWIDTH 2 0
BBX 2 9 0 -2
ATTRIBUTES 0119
BITMAP
80
80
80
80
80
80
80
80
80
ENDCHAR
STARTCHAR Acircumflex
ENCODING 194
SWIDTH 240 0
DWIDTH 2 0
BBX 2 9 0 -2
ATTRIBUTES 0119
BITMAP
c0
c0
40
40
40
40
40
40
40
ENDCHAR
STARTCHAR Atilde
ENCODING 195
SWIDTH 240 0
DWIDTH 2 0
BBX 2 9 0 -2
ATTRIBUTES 0119
BITMAP
40
40
40
40
40
40
40
40
40
ENDCHAR
STARTCHAR Adiaeresis
ENCODING 196
SWIDTH 480 0
DWIDTH 4 0
BBX 4 4 0 0
ATTRIBUTES 01f5
BITMAP
c0
f0
90
90
ENDCHAR
STARTCHAR Aring
ENCODING 197
SWIDTH 360 0
DWIDTH 3 0
BBX 1 3 2 0
ATTRIBUTES 0196
BITMAP
80
80
80
ENDCHAR
STARTCHAR AE
ENCODING 198
SWIDTH 600 0
DWIDTH 5 0
BBX 5 6 0 0
ATTRIBUTES 027e
BITMAP
80
78
40
40
40
40
ENDCHAR
STARTCHAR Ccedilla
ENCODING 199
SWIDTH 840 0
DWIDTH 7 0
BBX 5 6 0 0
ATTRIBUTES 0318
BITMAP
40
10
28
28
48
88
ENDCHAR
STARTCHAR Egrave
ENCODING 200
SWIDTH 840 0
DWIDTH 7 0
BBX 6 6 0 0
ATTRIBUTES 0340
BITMAP
f8
38
44
ac
b4
88
ENDCHAR
STARTCHAR Eacute
ENCODING 201
SWIDTH 840 0
DWIDTH 7 0
BBX 6 6 0 0
ATTRIBUTES 0338
BITMAP
70
08
38
28
28
48
ENDCHAR
STARTCHAR Ecircumflex
ENCODING 202
SWIDTH 720 0
DWIDTH 6 0
BBX 5 6 0 0
ATTRIBUTES 02cc
BITMAP
c8
78
08
78
48
08
ENDCHAR
STARTCHAR Ediaeresis
ENCODING 203
SWIDTH 840 0
DWIDTH 7 0
BBX 7 6 0 0
ATTRIBUTES 0369
BITMAP
f8
7c
24
44
44
44
ENDCHAR
STARTCHAR Igrave
ENCODING 204
SWIDTH 720 0
DWIDTH 6 0
BBX 6 6 0 0
ATTRIBUTES 02ce
BITMAP
48
7c
20
10
20
40
ENDCHAR
STARTCHAR Iacute
ENCODING 205
SWIDTH 720 0
DWIDTH 6 0
BBX 5 6 1 0
ATTRIBUTES 02bd
BITMAP
f8
98
d0
60
40
40
ENDCHAR
STARTCHAR Icircumflex
ENCODING 206
SWIDTH 720 0
DWIDTH 6 0
BBX 6 6 0 0
ATTRIBUTES 02ea
BITMAP
40
18
10
7c
ac
70
ENDCHAR
STARTCHAR Idiaeresis
ENCODING 207
SWIDTH 840 0
DWIDTH 7 0
BBX 5 6 1 0
ATTRIBUTES 0322
BITMAP
20
a8
a8
f0
40
40
ENDCHAR
STARTCHAR ETH
ENCODING 208
SWIDTH 840 0
DWIDTH 7 0
BBX 7 6 0 0
ATTRIBUTES 0379
BITMAP
40
1c
62
42
44
24
ENDCHAR
STARTCHAR Ntilde
ENCODING 209
SWIDTH 840 0
DWIDTH 7 0
BBX 5 4 1 0
ATTRIBUTES 0343
BITMAP
e8
68
50
b0
ENDCHAR
STARTCHAR Ograve
ENCODING 210
SWIDTH 720 0
DWIDTH 6 0
BBX 5 8 0 -1
ATTRIBUTES 02a5
BITMAP
c8
18
28
28
50
48
48
70
ENDCHAR
STARTCHAR Oacute
ENCODING 211
SWIDTH 720 0
DWIDTH 6 0
BBX 5 6 0 -2
ATTRIBUTES 02b2
BITMAP
40
48
28
30
60
60
ENDCHAR
STARTCHAR Ocircumflex
ENCODING 212
SWIDTH 600 0
DWIDTH 5 0
BBX 5 7 0 0
ATTRIBUTES 0290
BITMAP
c0
38
20
30
70
88
98
ENDCHAR
STARTCHAR Otilde
ENCODING 213
SWIDTH 480 0
DWIDTH 4 0
BBX 4 5 0 0
ATTRIBUTES 021e
BITMAP
60
70
40
e0
80
ENDCHAR
STARTCHAR Odiaeresis
ENCODING 214
SWIDTH 720 0
DWIDTH 6 0
BBX 5 8 1 -2
ATTRIBUTES 02ae
BITMAP
60
b0
40
40
80
80
f0
10
ENDCHAR
STARTCHAR multiply
ENCODING 215
SWIDTH 720 0
DWIDTH 6 0
BBX 4 6 1 -1
ATTRIBUTES 02ac
BITMAP
60
f0
90
90
90
10
ENDCHAR
STARTCHAR Ooblique
ENCODING 216
SWIDTH 720 0
DWIDTH 6 0
BBX 4 7 1 0
ATTRIBUTES 02d0
BITMAP
20
70
50
50
f0
90
a0
ENDCHAR
STARTCHAR Ugrave
ENCODING 217
SWIDTH 360 0
DWIDTH 3 0
BBX 2 4 1 0
ATTRIBUTES 0191
BITMAP
c0
80
80
80
ENDCHAR
STARTCHAR Uacute
ENCODING 218
SWIDTH 600 0
DWIDTH 5 0
BBX 4 4 1 0
ATTRIBUTES 028e
BITMAP
c0
b0
a0
e0
ENDCHAR
STARTCHAR Ucircumflex
ENCODING 219
SWIDTH 720 0
DWIDTH 6 0
BBX 5 6 0 0
ATTRIBUTES 02b2
BITMAP
a0
20
20
20
50
50
ENDCHAR
STARTCHAR Udiaeresis
ENCODING 220
SWIDTH 720 0
DWIDTH 6 0
BBX 5 6 0 -2
ATTRIBUTES 02b4
BITMAP
90
48
48
48
f8
80
ENDCHAR
STARTCHAR Yacute
ENCODING 221
SWIDTH 720 0
DWIDTH 6 0
BBX 5 4 0 0
ATTRIBUTES 02b2
BITMAP
80
48
30
30
ENDCHAR
STARTCHAR THORN
ENCODING 222
SWIDTH 600 0
DWIDTH 5 0
BBX 4 8 1 -2
ATTRIBUTES 027f
BITMAP
20
40
40
60
40
80
e0
20
ENDCHAR
STARTCHAR ssharp
ENCODING 223
SWIDTH 600 0
DWIDTH 5 0
BBX 5 5 0 0
ATTRIBUTES 0289
BITMAP
40
30
48
88
90
ENDCHAR
STARTCHAR agrave
ENCODING 224
SWIDTH 840 0
DWIDTH 7 0
BBX 7 4 0 0
ATTRIBUTES 0354
BITMAP
60
fe
48
48
ENDCHAR
STARTCHAR aacute
ENCODING 225
SWIDTH 600 0
DWIDTH 5 0
BBX 5 6 0 -1
ATTRIBUTES 0294
BITMAP
48
38
48
48
50
60
ENDCHAR
STARTCHAR acircumflex
ENCODING 226
SWIDTH 720 0
DWIDTH 6 0
BBX 6 5 1 0
ATTRIBUTES 0306
BITMAP
40
60
5c
90
b0
ENDCHAR
STARTCHAR atilde
ENCODING 227
SWIDTH 720 0
DWIDTH 6 0
BBX 5 4 0 0
ATTRIBUTES 02a3
BITMAP
e0
f8
20
20
ENDCHAR
STARTCHAR adiaeresis
ENCODING 228
SWIDTH 600 0
DWIDTH 5 0
BBX 4 5 1 0
ATTRIBUTES 0292
BITMAP
20
90
90
90
a0
ENDCHAR
STARTCHAR aring
ENCODING 229
SWIDTH 840 0
DWIDTH 7 0
BBX 6 8 1 -2
ATTRIBUTES 036c
BITMAP
40
10
10
68
e4
a4
f8
20
ENDCHAR
STARTCHAR ae
ENCODING 230
SWIDTH 720 0
DWIDTH 6 0
BBX 5 6 0 -2
ATTRIBUTES 02bb
BITMAP
20
48
30
20
50
50
ENDCHAR
STARTCHAR ccedilla
ENCODING 231
SWIDTH 960 0
DWIDTH 8 0
BBX 6 7 1 -2
ATTRIBUTES 038e
BITMAP
88
10
a4
a4
a8
70
20
ENDCHAR
STARTCHAR egrave
ENCODING 232
SWIDTH 960 0
DWIDTH 8 0
BBX 6 5 1 0
ATTRIBUTES 03e4
BITMAP
20
04
54
94
a4
ENDCHAR
STARTCHAR eacute
ENCODING 233
SWIDTH 480 0
DWIDTH 4 0
BBX 3 5 1 0
ATTRIBUTES 0217
BITMAP
c0
60
40
c0
80
ENDCHAR
STARTCHAR ecircumflex
ENCODING 234
SWIDTH 720 0
DWIDTH 6 0
BBX 6 7 0 0
ATTRIBUTES 02cc
BITMAP
c0
38
48
48
7c
10
d0
ENDCHAR
STARTCHAR ediaeresis
ENCODING 235
SWIDTH 960 0
DWIDTH 8 0
BBX 8 4 0 0
ATTRIBUTES 03e2
BITMAP
20
ff
4a
4a
ENDCHAR
STARTCHAR igrave
ENCODING 236
SWIDTH 720 0
DWIDTH 6 0
BBX 5 7 0 -2
ATTRIBUTES 029a
BITMAP
78
38
48
c8
d0
e0
80
ENDCHAR
STARTCHAR iacute
ENCODING 237
SWIDTH 600 0
DWIDTH 5 0
BBX 5 7 0 -2
ATTRIBUTES 027c
BITMAP
70
38
40
80
80
f0
10
ENDCHAR
STARTCHAR icircumflex
ENCODING 238
SWIDTH 960 0
DWIDTH 8 0
BBX 7 6 0 -1
ATTRIBUTES 039f
BITMAP
60
7e
92
92
9c
50
ENDCHAR
STARTCHAR idiaeresis
ENCODING 239
SWIDTH 600 0
DWIDTH 5 0
BBX 4 6 1 0
ATTRIBUTES 028e
BITMAP
20
40
30
70
90
90
ENDCHAR
STARTCHAR eth
ENCODING 240
SWIDTH 600 0
DWIDTH 5 0
BBX 5 7 0 0
ATTRIBUTES 024d
BITMAP
e0
18
28
70
40
40
50
ENDCHAR
STARTCHAR ntilde
ENCODING 241
SWIDTH 360 0
DWIDTH 3 0
BBX 2 4 0 0
ATTRIBUTES 0151
BITMAP
40
40
40
80
ENDCHAR
STARTCHAR ograve
ENCODING 242
SWIDTH 360 0
DWIDTH 3 0
BBX 4 6 -1 -2
ATTRIBUTES 0187
BITMAP
80
10
10
10
20
20
ENDCHAR
STARTCHAR oacute
ENCODING 243
SWIDTH 720 0
DWIDTH 6 0
BBX 6 7 0 -2
ATTRIBUTES 02d5
BITMAP
c0
20
7c
c4
48
d8
60
ENDCHAR
STARTCHAR ocircumflex
ENCODING 244
SWIDTH 720 0
DWIDTH 6 0
BBX 4 6 1 0
ATTRIBUTES 0298
BITMAP
40
10
10
10
f0
10
ENDCHAR
STARTCHAR otilde
ENCODING 245
SWIDTH 720 0
DWIDTH 6 0
BBX 5 6 1 0
ATTRIBUTES 0300
BITMAP
f0
e0
18
88
88
90
ENDCHAR
STARTCHAR odiaeresis
ENCODING 246
SWIDTH 600 0
DWIDTH 5 0
BBX 4 7 1 -1
ATTRIBUTES 0274
BITMAP
e0
70
40
60
40
80
90
ENDCHAR
STARTCHAR division
ENCODING 247
SWIDTH 840 0
DWIDTH 7 0
BBX 5 6 1 0
ATTRIBUTES 036c
BITMAP
60
d8
58
88
88
88
ENDCHAR
STARTCHAR oslash
ENCODING 248
SWIDTH 720 0
DWIDTH 6 0
BBX 6 8 0 -3
ATTRIBUTES 0304
BITMAP
70
38
68
48
5c
78
50
a0
ENDCHAR
STARTCHAR ugrave
ENCODING 249
SWIDTH 840 0
DWIDTH 7 0
BBX 6 7 0 0
ATTRIBUTES 032f
BITMAP
c0
18
28
78
68
48
4c
ENDCHAR
STARTCHAR uacute
ENCODING 250
SWIDTH 720 0
DWIDTH 6 0
BBX 5 7 0 -3
ATTRIBUTES 02a5
BITMAP
48
f0
20
68
f0
50
a0
ENDCHAR
STARTCHAR ucircumflex
ENCODING 251
SWIDTH 600 0
DWIDTH 5 0
BBX 5 6 0 0
ATTRIBUTES 0253
BITMAP
c0
f0
40
20
e0
90
ENDCHAR
STARTCHAR udiaeresis
ENCODING 252
SWIDTH 600 0
DWIDTH 5 0
BBX 6 7 0 0
ATTRIBUTES 024d
BITMAP
90
18
7c
70
40
40
50
ENDCHAR
STARTCHAR yacute
ENCODING 253
SWIDTH 720 0
DWIDTH 6 0
BBX 5 5 1 0
ATTRIBUTES 029b
BITMAP
60
e0
10
10
10
ENDCHAR
STARTCHAR thorn
ENCODING 254
SWIDTH 480 0
DWIDTH 4 0
BBX 3 5 0 0
ATTRIBUTES 01ce
BITMAP
e0
80
40
20
20
ENDCHAR
STARTCHAR ydiaeresis
ENCODING 255
SWIDTH 600 0
DWIDTH 5 0
BBX 5 5 0 0
ATTRIBUTES 025e
BITMAP
e0
f8
10
10
10
ENDCHAR
ENDFONT
